# xmcd
#
# Track frame offsets: 
#        150
#        22835
#        38622
#        53267
#        73472
#        93910
#        114985
#        133357
#        146965
#        164677
#        182830
#        203170
#
# Disc length: 2887 seconds
#
# Revision: 1
# Processed by: cddbd v1.5.2PL0 Copyright (c) Steve Scherf et al.
# Submitted via: ExactAudioCopy v0.95b4
#
DISCID=ab0b450c
DTITLE=Black Label Society - The Blessed Hellride (Japanese Edition)
DYEAR=2003
DGENRE=Southern/Groove Metal
TTITLE0=Stoned And Drunk
TTITLE1=Doomsday Jesus
TTITLE2=Stillborn
TTITLE3=Suffering Overdue
TTITLE4=The Blessed Hellride
TTITLE5=Funeral Bell
TTITLE6=Final Solution
TTITLE7=Destruction Overdrive
TTITLE8=Blackened Waters
TTITLE9=We Live No More
TTITLE10=Dead Meadow
TTITLE11=F.U.N. (Bonus Track)
EXTD=YEAR: 2003
EXTT0=
EXTT1=
EXTT2=
EXTT3=
EXTT4=
EXTT5=
EXTT6=
EXTT7=
EXTT8=
EXTT9=
EXTT10=
EXTT11=
PLAYORDER=
